<mxfile host="Electron" agent="Mozilla/5.0 (Macintosh; Intel Mac OS X 10_15_7) AppleWebKit/537.36 (KHTML, like Gecko) draw.io/24.7.5 Chrome/126.0.6478.183 Electron/31.3.0 Safari/537.36" version="24.7.5">
  <diagram name="Page-1" id="2Wu0Mc72siz_tzSt4GmA">
    <mxGraphModel dx="1026" dy="692" grid="1" gridSize="10" guides="1" tooltips="1" connect="1" arrows="1" fold="1" page="1" pageScale="1" pageWidth="850" pageHeight="1100" math="0" shadow="0">
      <root>
        <mxCell id="0" />
        <mxCell id="1" parent="0" />
        <mxCell id="n8Y0_3dV591dkHzI3Kdo-1" value="AWS management Account" style="points=[[0,0],[0.25,0],[0.5,0],[0.75,0],[1,0],[1,0.25],[1,0.5],[1,0.75],[1,1],[0.75,1],[0.5,1],[0.25,1],[0,1],[0,0.75],[0,0.5],[0,0.25]];outlineConnect=0;gradientColor=none;html=1;whiteSpace=wrap;fontSize=12;fontStyle=0;container=1;pointerEvents=0;collapsible=0;recursiveResize=0;shape=mxgraph.aws4.group;grIcon=mxgraph.aws4.group_account;strokeColor=#CD2264;fillColor=none;verticalAlign=top;align=left;spacingLeft=30;fontColor=#CD2264;dashed=0;" vertex="1" parent="1">
          <mxGeometry x="80" y="40" width="640" height="410" as="geometry" />
        </mxCell>
        <mxCell id="n8Y0_3dV591dkHzI3Kdo-2" value="Control Tower" style="sketch=0;points=[[0,0,0],[0.25,0,0],[0.5,0,0],[0.75,0,0],[1,0,0],[0,1,0],[0.25,1,0],[0.5,1,0],[0.75,1,0],[1,1,0],[0,0.25,0],[0,0.5,0],[0,0.75,0],[1,0.25,0],[1,0.5,0],[1,0.75,0]];points=[[0,0,0],[0.25,0,0],[0.5,0,0],[0.75,0,0],[1,0,0],[0,1,0],[0.25,1,0],[0.5,1,0],[0.75,1,0],[1,1,0],[0,0.25,0],[0,0.5,0],[0,0.75,0],[1,0.25,0],[1,0.5,0],[1,0.75,0]];outlineConnect=0;fontColor=#232F3E;fillColor=#E7157B;strokeColor=#ffffff;dashed=0;verticalLabelPosition=bottom;verticalAlign=top;align=center;html=1;fontSize=12;fontStyle=0;aspect=fixed;shape=mxgraph.aws4.resourceIcon;resIcon=mxgraph.aws4.control_tower;" vertex="1" parent="n8Y0_3dV591dkHzI3Kdo-1">
          <mxGeometry x="42" y="40" width="78" height="78" as="geometry" />
        </mxCell>
        <mxCell id="n8Y0_3dV591dkHzI3Kdo-14" style="edgeStyle=orthogonalEdgeStyle;rounded=0;orthogonalLoop=1;jettySize=auto;html=1;" edge="1" parent="n8Y0_3dV591dkHzI3Kdo-1" source="n8Y0_3dV591dkHzI3Kdo-3" target="n8Y0_3dV591dkHzI3Kdo-13">
          <mxGeometry relative="1" as="geometry" />
        </mxCell>
        <mxCell id="n8Y0_3dV591dkHzI3Kdo-20" style="edgeStyle=orthogonalEdgeStyle;rounded=0;orthogonalLoop=1;jettySize=auto;html=1;" edge="1" parent="n8Y0_3dV591dkHzI3Kdo-1" source="n8Y0_3dV591dkHzI3Kdo-3" target="n8Y0_3dV591dkHzI3Kdo-4">
          <mxGeometry relative="1" as="geometry" />
        </mxCell>
        <mxCell id="n8Y0_3dV591dkHzI3Kdo-24" style="edgeStyle=orthogonalEdgeStyle;rounded=0;orthogonalLoop=1;jettySize=auto;html=1;" edge="1" parent="n8Y0_3dV591dkHzI3Kdo-1" source="n8Y0_3dV591dkHzI3Kdo-3" target="n8Y0_3dV591dkHzI3Kdo-23">
          <mxGeometry relative="1" as="geometry">
            <Array as="points">
              <mxPoint x="420" y="190" />
              <mxPoint x="420" y="299" />
            </Array>
          </mxGeometry>
        </mxCell>
        <mxCell id="n8Y0_3dV591dkHzI3Kdo-3" value="EventBridge" style="sketch=0;points=[[0,0,0],[0.25,0,0],[0.5,0,0],[0.75,0,0],[1,0,0],[0,1,0],[0.25,1,0],[0.5,1,0],[0.75,1,0],[1,1,0],[0,0.25,0],[0,0.5,0],[0,0.75,0],[1,0.25,0],[1,0.5,0],[1,0.75,0]];outlineConnect=0;fontColor=#232F3E;fillColor=#E7157B;strokeColor=#ffffff;dashed=0;verticalLabelPosition=bottom;verticalAlign=top;align=center;html=1;fontSize=12;fontStyle=0;aspect=fixed;shape=mxgraph.aws4.resourceIcon;resIcon=mxgraph.aws4.eventbridge;" vertex="1" parent="n8Y0_3dV591dkHzI3Kdo-1">
          <mxGeometry x="281" y="118" width="78" height="78" as="geometry" />
        </mxCell>
        <mxCell id="n8Y0_3dV591dkHzI3Kdo-21" style="edgeStyle=orthogonalEdgeStyle;rounded=0;orthogonalLoop=1;jettySize=auto;html=1;" edge="1" parent="n8Y0_3dV591dkHzI3Kdo-1" source="n8Y0_3dV591dkHzI3Kdo-4" target="n8Y0_3dV591dkHzI3Kdo-3">
          <mxGeometry relative="1" as="geometry">
            <Array as="points">
              <mxPoint x="420" y="180" />
              <mxPoint x="420" y="180" />
            </Array>
          </mxGeometry>
        </mxCell>
        <mxCell id="n8Y0_3dV591dkHzI3Kdo-22" value="Close account" style="edgeLabel;html=1;align=center;verticalAlign=middle;resizable=0;points=[];" vertex="1" connectable="0" parent="n8Y0_3dV591dkHzI3Kdo-21">
          <mxGeometry x="0.2624" y="-2" relative="1" as="geometry">
            <mxPoint as="offset" />
          </mxGeometry>
        </mxCell>
        <mxCell id="n8Y0_3dV591dkHzI3Kdo-4" value="DiscoverAccounts" style="sketch=0;points=[[0,0,0],[0.25,0,0],[0.5,0,0],[0.75,0,0],[1,0,0],[0,1,0],[0.25,1,0],[0.5,1,0],[0.75,1,0],[1,1,0],[0,0.25,0],[0,0.5,0],[0,0.75,0],[1,0.25,0],[1,0.5,0],[1,0.75,0]];outlineConnect=0;fontColor=#232F3E;fillColor=#ED7100;strokeColor=#ffffff;dashed=0;verticalLabelPosition=bottom;verticalAlign=top;align=center;html=1;fontSize=12;fontStyle=0;aspect=fixed;shape=mxgraph.aws4.resourceIcon;resIcon=mxgraph.aws4.lambda;" vertex="1" parent="n8Y0_3dV591dkHzI3Kdo-1">
          <mxGeometry x="500" y="118" width="78" height="78" as="geometry" />
        </mxCell>
        <mxCell id="n8Y0_3dV591dkHzI3Kdo-5" style="edgeStyle=orthogonalEdgeStyle;rounded=0;orthogonalLoop=1;jettySize=auto;html=1;entryX=0.5;entryY=0;entryDx=0;entryDy=0;entryPerimeter=0;" edge="1" parent="n8Y0_3dV591dkHzI3Kdo-1" source="n8Y0_3dV591dkHzI3Kdo-2" target="n8Y0_3dV591dkHzI3Kdo-3">
          <mxGeometry relative="1" as="geometry" />
        </mxCell>
        <mxCell id="n8Y0_3dV591dkHzI3Kdo-6" value="CreateManagedAccount" style="edgeLabel;html=1;align=center;verticalAlign=middle;resizable=0;points=[];" vertex="1" connectable="0" parent="n8Y0_3dV591dkHzI3Kdo-5">
          <mxGeometry x="-0.0547" y="3" relative="1" as="geometry">
            <mxPoint as="offset" />
          </mxGeometry>
        </mxCell>
        <mxCell id="n8Y0_3dV591dkHzI3Kdo-13" value="TagAccount" style="sketch=0;points=[[0,0,0],[0.25,0,0],[0.5,0,0],[0.75,0,0],[1,0,0],[0,1,0],[0.25,1,0],[0.5,1,0],[0.75,1,0],[1,1,0],[0,0.25,0],[0,0.5,0],[0,0.75,0],[1,0.25,0],[1,0.5,0],[1,0.75,0]];outlineConnect=0;fontColor=#232F3E;fillColor=#ED7100;strokeColor=#ffffff;dashed=0;verticalLabelPosition=bottom;verticalAlign=top;align=center;html=1;fontSize=12;fontStyle=0;aspect=fixed;shape=mxgraph.aws4.resourceIcon;resIcon=mxgraph.aws4.lambda;" vertex="1" parent="n8Y0_3dV591dkHzI3Kdo-1">
          <mxGeometry x="281" y="260" width="78" height="78" as="geometry" />
        </mxCell>
        <mxCell id="n8Y0_3dV591dkHzI3Kdo-19" value="" style="outlineConnect=0;dashed=0;verticalLabelPosition=bottom;verticalAlign=top;align=center;html=1;shape=mxgraph.aws3.event_time_based;fillColor=#759C3E;gradientColor=none;" vertex="1" parent="n8Y0_3dV591dkHzI3Kdo-1">
          <mxGeometry x="390" y="70" width="63" height="82.5" as="geometry" />
        </mxCell>
        <mxCell id="n8Y0_3dV591dkHzI3Kdo-23" value="DeleteAccount" style="sketch=0;points=[[0,0,0],[0.25,0,0],[0.5,0,0],[0.75,0,0],[1,0,0],[0,1,0],[0.25,1,0],[0.5,1,0],[0.75,1,0],[1,1,0],[0,0.25,0],[0,0.5,0],[0,0.75,0],[1,0.25,0],[1,0.5,0],[1,0.75,0]];outlineConnect=0;fontColor=#232F3E;fillColor=#ED7100;strokeColor=#ffffff;dashed=0;verticalLabelPosition=bottom;verticalAlign=top;align=center;html=1;fontSize=12;fontStyle=0;aspect=fixed;shape=mxgraph.aws4.resourceIcon;resIcon=mxgraph.aws4.lambda;" vertex="1" parent="n8Y0_3dV591dkHzI3Kdo-1">
          <mxGeometry x="490" y="260" width="78" height="78" as="geometry" />
        </mxCell>
        <mxCell id="n8Y0_3dV591dkHzI3Kdo-15" value="AWS new Sandbox Account" style="points=[[0,0],[0.25,0],[0.5,0],[0.75,0],[1,0],[1,0.25],[1,0.5],[1,0.75],[1,1],[0.75,1],[0.5,1],[0.25,1],[0,1],[0,0.75],[0,0.5],[0,0.25]];outlineConnect=0;gradientColor=none;html=1;whiteSpace=wrap;fontSize=12;fontStyle=0;container=1;pointerEvents=0;collapsible=0;recursiveResize=0;shape=mxgraph.aws4.group;grIcon=mxgraph.aws4.group_account;strokeColor=#CD2264;fillColor=none;verticalAlign=top;align=left;spacingLeft=30;fontColor=#CD2264;dashed=0;" vertex="1" parent="1">
          <mxGeometry x="80" y="480" width="160" height="200" as="geometry" />
        </mxCell>
        <mxCell id="n8Y0_3dV591dkHzI3Kdo-25" value="Budget" style="sketch=0;points=[[0,0,0],[0.25,0,0],[0.5,0,0],[0.75,0,0],[1,0,0],[0,1,0],[0.25,1,0],[0.5,1,0],[0.75,1,0],[1,1,0],[0,0.25,0],[0,0.5,0],[0,0.75,0],[1,0.25,0],[1,0.5,0],[1,0.75,0]];outlineConnect=0;fontColor=#232F3E;fillColor=#7AA116;strokeColor=#ffffff;dashed=0;verticalLabelPosition=bottom;verticalAlign=top;align=center;html=1;fontSize=12;fontStyle=0;aspect=fixed;shape=mxgraph.aws4.resourceIcon;resIcon=mxgraph.aws4.budgets_2;" vertex="1" parent="n8Y0_3dV591dkHzI3Kdo-15">
          <mxGeometry x="20" y="80" width="78" height="78" as="geometry" />
        </mxCell>
        <mxCell id="n8Y0_3dV591dkHzI3Kdo-16" style="edgeStyle=orthogonalEdgeStyle;rounded=0;orthogonalLoop=1;jettySize=auto;html=1;" edge="1" parent="1" source="n8Y0_3dV591dkHzI3Kdo-2" target="n8Y0_3dV591dkHzI3Kdo-15">
          <mxGeometry relative="1" as="geometry">
            <Array as="points">
              <mxPoint x="160" y="240" />
              <mxPoint x="160" y="240" />
            </Array>
          </mxGeometry>
        </mxCell>
        <mxCell id="n8Y0_3dV591dkHzI3Kdo-17" style="edgeStyle=orthogonalEdgeStyle;rounded=0;orthogonalLoop=1;jettySize=auto;html=1;" edge="1" parent="1" source="n8Y0_3dV591dkHzI3Kdo-13" target="n8Y0_3dV591dkHzI3Kdo-15">
          <mxGeometry relative="1" as="geometry">
            <Array as="points">
              <mxPoint x="400" y="470" />
              <mxPoint x="160" y="470" />
            </Array>
          </mxGeometry>
        </mxCell>
        <mxCell id="n8Y0_3dV591dkHzI3Kdo-18" value="Set tag expiration_date" style="edgeLabel;html=1;align=center;verticalAlign=middle;resizable=0;points=[];" vertex="1" connectable="0" parent="n8Y0_3dV591dkHzI3Kdo-17">
          <mxGeometry x="0.386" y="-4" relative="1" as="geometry">
            <mxPoint as="offset" />
          </mxGeometry>
        </mxCell>
        <mxCell id="n8Y0_3dV591dkHzI3Kdo-26" style="edgeStyle=orthogonalEdgeStyle;rounded=0;orthogonalLoop=1;jettySize=auto;html=1;entryX=0;entryY=0.5;entryDx=0;entryDy=0;entryPerimeter=0;" edge="1" parent="1" source="n8Y0_3dV591dkHzI3Kdo-25" target="n8Y0_3dV591dkHzI3Kdo-3">
          <mxGeometry relative="1" as="geometry" />
        </mxCell>
        <mxCell id="n8Y0_3dV591dkHzI3Kdo-27" value="CloseAccount" style="edgeLabel;html=1;align=center;verticalAlign=middle;resizable=0;points=[];" vertex="1" connectable="0" parent="n8Y0_3dV591dkHzI3Kdo-26">
          <mxGeometry x="0.4034" y="1" relative="1" as="geometry">
            <mxPoint x="1" as="offset" />
          </mxGeometry>
        </mxCell>
      </root>
    </mxGraphModel>
  </diagram>
</mxfile>
